<svg xmlns="http://www.w3.org/2000/svg" viewBox="0 0 1596.6 334.69"><title>Footer Logo</title><g id="Layer_2" data-name="Layer 2"><g id="Layer_1-2" data-name="Layer 1"><path d="M241.5,97.62V326.79H189.59l-2.71-33.47c-12.64,27.42-48.3,40.44-73.13,40.44C48.3,333.76,0,291.92,0,212,0,133.41,50.56,92,115.11,92c29.79,0,59.13,13.94,71.77,37.19l1.81-31.61ZM55.07,212c0,43.69,29.34,69.73,65.91,69.73,43.33,0,65-34.87,65-69.73,0-34.4-21.67-69.26-65-69.26C84.41,142.71,55.07,168.27,55.07,212Z" fill="#fff"></path><path d="M378.28,138.06c-26.19,0-40.63,8.37-40.63,22.78,0,14.87,13.09,23.24,41.53,25.1,42,2.79,95.24,12.55,95.24,73.44,0,40.44-32.05,75.31-95.69,75.31-35.21,0-70.42-6.05-102.92-40.91l27.08-40.44c16.25,18.59,53.27,32.07,78.09,32.07,20.32,0,38.82-11.15,38.82-27.42,0-15.81-12.63-22.31-44.23-24.17-42-3.26-92.09-19.06-92.09-71.12,0-53,53.27-71.59,93.89-71.59,34.76,0,60.94,7,86.67,30.21l-30.69,37.19C417.55,143.17,399.49,138.06,378.28,138.06Z" fill="#fff"></path><path d="M739,97.62V326.79H687l-2.71-33.47c-12.64,27.42-48.3,40.44-73.13,40.44-65.45,0-113.75-41.84-113.75-121.79C497.45,133.41,548,92,612.55,92c29.8,0,59.14,13.94,71.78,37.19l1.8-31.61ZM552.52,212c0,43.69,29.34,69.73,65.9,69.73,43.34,0,65-34.87,65-69.73,0-34.4-21.66-69.26-65-69.26C581.86,142.71,552.52,168.27,552.52,212Z" fill="#fff"></path><path d="M949.3,206.86c0-34.87-18.51-61.36-53.72-61.36-33.85,0-56.87,29.28-56.87,64.14V326.79H784.09V97.15h49.2l3.61,31.15C859.47,105.52,882,93.9,910,93.9c52.36,0,94.34,40.44,94.34,112.49v120.4H949.3Z" fill="#fff"></path><path d="M1079.31,0c16.25,0,32.5,10.69,32.5,33,0,21.85-16.25,33-32.5,33s-32.5-11.16-32.5-33C1046.81,10.69,1063.06,0,1079.31,0Zm-27.54,326.79h55.07V96.69h-55.07Z" fill="#fff"></path><path d="M1187.64,264.5c16.25,0,32.5,10.69,32.5,33,0,21.85-16.25,33-32.5,33s-32.5-11.15-32.5-33C1155.14,275.19,1171.39,264.5,1187.64,264.5Z" fill="#fff"></path><path d="M1293.27,0c16.25,0,32.5,10.69,32.5,33,0,21.85-16.25,33-32.5,33s-32.5-11.16-32.5-33C1260.77,10.69,1277,0,1293.27,0Zm-27.54,326.79h55.07V96.69h-55.07Z" fill="#fff"></path><path d="M1596.6,212.43c0,66-43.78,119.47-116,119.47S1365,278.44,1365,212.43C1365,146.89,1409.27,93,1480.14,93S1596.6,146.89,1596.6,212.43Zm-176.5,0c0,34.87,20.32,67.41,60.49,67.41s60.49-32.54,60.49-67.41c0-34.39-23.47-67.86-60.49-67.86C1440.87,144.57,1420.1,178,1420.1,212.43Z" fill="#fff"></path></g></g></svg>