<?xml version="1.0" encoding="UTF-8"?> <svg xmlns="http://www.w3.org/2000/svg" xmlns:xlink="http://www.w3.org/1999/xlink" viewBox="0 0 190.5 65.16"><defs><style>.cls-1{fill:url(#linear-gradient);}.cls-2{fill:url(#linear-gradient-2);}.cls-3{fill:url(#linear-gradient-3);}.cls-4{fill:#4287bb;}</style><linearGradient id="linear-gradient" x1="14.62" y1="50.83" x2="178.9" y2="50.83" gradientUnits="userSpaceOnUse"><stop offset="0" stop-color="#00c3ff"></stop><stop offset="0.99" stop-color="#008ab4"></stop></linearGradient><linearGradient id="linear-gradient-2" x1="1.22" y1="56.93" x2="131.45" y2="56.93" gradientUnits="userSpaceOnUse"><stop offset="0" stop-color="#0071b5"></stop><stop offset="1" stop-color="#004580"></stop></linearGradient><linearGradient id="linear-gradient-3" x1="96.89" y1="47.64" x2="190.5" y2="47.64" gradientUnits="userSpaceOnUse"><stop offset="0" stop-color="#5df2ff"></stop><stop offset="1" stop-color="#00b6e1"></stop></linearGradient></defs><title>Asani Svg</title><g id="Layer_2" data-name="Layer 2"><g id="Layer_1-2" data-name="Layer 1"><path class="cls-1" d="M14.62,50s6-.64,14.45-1.86,8.44-1.91,18.31-3.45c9-1.41,13.55-2.11,18.56-2.12a86.89,86.89,0,0,1,17,1.85c4.28.77,4.24,1,22.7,5.31a90.54,90.54,0,0,0,11.09,2.13,78.68,78.68,0,0,0,11.86.53c3.68-.14,4-.45,16-2.13,7.34-1,9.37-1.2,11.34-1.32a55.81,55.81,0,0,1,10.58,0,48.2,48.2,0,0,1,12.38,3.18s-.75-.06-2.33-.26a73.49,73.49,0,0,0-8.51-.53,50.6,50.6,0,0,0-9.28,1.06c-.92.16-2.45.44-9.54,2.12s-8,2.25-11.35,2.92a68.71,68.71,0,0,1-8.25,1.33c-1.46.13-3.64.17-8,.27a48,48,0,0,1-6.71-.27c-1,0-3-.17-5.67-.53a115.38,115.38,0,0,1-14.7-3.19c-9.4-2.47-8.77-2.52-12.9-3.45A103.59,103.59,0,0,0,69.55,49.5,95.43,95.43,0,0,0,56.4,49c-3.74.1-3.5.31-12.89,1.06-6,.48-9.06.72-13.15.8s-6.53,0-10.58-.27A40.45,40.45,0,0,1,14.62,50Z"></path><path class="cls-2" d="M131.45,60.65l-1.62.49c-1.36.41-3.32,1-4.83,1.37a72.89,72.89,0,0,1-9.28,1.86,80.57,80.57,0,0,1-10.32.79,86.87,86.87,0,0,1-10.32-.79c-3.17-.41-5.64-1.16-10.57-2.13-5.35-1.05-5.24-1.15-9-1.86-1.89-.35-6.34-1.15-12.12-1.86-3.06-.37-6.75-.54-11.61-.79-2.86-.15-2.74,0-11.09-.27-4.84-.12-7.76-.23-8.77-.26a102.63,102.63,0,0,1-10.31-.8A55.89,55.89,0,0,1,10.5,53.75a34.51,34.51,0,0,1-9.28-5A53.92,53.92,0,0,0,7.4,50.56c1.87.47,3.22.69,5.42,1.06,2,.33,4.69.78,8.25,1.06,3.34.27,5.87.27,7.74.27,2.28,0,4.1-.09,7.74-.27.81,0,4.07-.19,9-.53,5.54-.37,5.4-.43,7.74-.53,4.8-.19,8.29,0,9,0s4.08.21,8.51.8c4,.54,7,1.43,9,1.86,2.89.61,4.77,1.16,7.48,1.86,4.07,1,4.93,1.37,9,2.38,2.14.54,3.86.9,5.94,1.33s4.46.93,7.73,1.33c3,.37,5.4.49,6.45.53a55.37,55.37,0,0,0,5.93,0c1.24-.07,5.09-.55,7.34-.84Z"></path><path class="cls-3" d="M96.89,44.45a36.94,36.94,0,0,1,4.38.27c2.59.24,3.89.36,5.42.53,3.68.41,3.63.49,6.45.8,2.15.23,4,.43,6.44.53,2.87.12,5.11,0,6.19,0,.51,0,2.89-.13,6.19-.53,2.22-.27,2.36-.37,7-1.06,2.75-.42,4.13-.62,5.68-.8,2.5-.29,4.39-.4,6.44-.53,2.72-.17,4.14-.26,6.19-.27,3.42,0,5.92.22,6.45.27,1.06.1,3.11.32,5.67.79s4.36,1,5.68,1.33c2.53.69,4.43,1.34,5.15,1.59s2.66.94,5.42,2.13c2.28,1,4.9,2.39,4.9,2.39s-1.19-.38-3.61-1.06c-1-.29-1.49-.4-3.09-.8-3.59-.9-3.51-.93-5.16-1.33-2.93-.7-5.21-1.11-6.45-1.33-2-.34-3.42-.59-5.42-.79s-3.43-.22-5.41-.27c-1.56,0-3-.06-4.9,0-2.59.09-4.52.31-6.45.53-2.68.31-4.76.65-5.67.8-2,.34-2.23.44-5.67,1.06-2.4.44-3.6.66-4.65.8a64.4,64.4,0,0,1-6.44.53,53.59,53.59,0,0,1-5.68,0,53.17,53.17,0,0,1-6.19-.8c-2.74-.46-4.81-.94-6.44-1.32-1-.23-2.8-.66-5.16-1.33-1.63-.46-1.72-.53-3.61-1.06C97.92,44.79,96.89,44.45,96.89,44.45Z"></path><path class="cls-4" d="M28.48,11.51v27H22.36L22,34.59c-1.49,3.23-5.7,4.77-8.63,4.77C5.7,39.36,0,34.42,0,25c0-9.26,6-14.14,13.57-14.14,3.52,0,7,1.65,8.47,4.39l.21-3.73ZM6.49,25c0,5.16,3.46,8.23,7.78,8.23,5.11,0,7.66-4.11,7.66-8.23s-2.55-8.16-7.66-8.16C10,16.83,6.49,19.84,6.49,25Z"></path><path class="cls-4" d="M44.61,16.28c-3.09,0-4.8,1-4.8,2.69s1.55,2.74,4.9,3c4.95.32,11.23,1.48,11.23,8.66,0,4.76-3.78,8.88-11.28,8.88-4.15,0-8.3-.72-12.14-4.83l3.2-4.77c1.91,2.2,6.28,3.79,9.2,3.79,2.4,0,4.58-1.32,4.58-3.24S48,27.79,44.29,27.57c-4.95-.38-10.86-2.25-10.86-8.39s6.28-8.44,11.07-8.44c4.1,0,7.18.83,10.22,3.57L51.1,18.69A8.68,8.68,0,0,0,44.61,16.28Z"></path><path class="cls-4" d="M87.14,11.51v27H81l-.32-3.94c-1.49,3.23-5.69,4.77-8.62,4.77-7.72,0-13.41-4.94-13.41-14.37,0-9.26,6-14.14,13.57-14.14,3.51,0,7,1.65,8.46,4.39l.22-3.73ZM65.15,25c0,5.16,3.46,8.23,7.77,8.23,5.11,0,7.67-4.11,7.67-8.23S78,16.83,72.92,16.83C68.61,16.83,65.15,19.84,65.15,25Z"></path><path class="cls-4" d="M111.94,24.39c0-4.11-2.18-7.23-6.33-7.23-4,0-6.71,3.45-6.71,7.56V38.53H92.46V11.46h5.8l.43,3.67c2.66-2.69,5.32-4.06,8.62-4.06,6.17,0,11.12,4.77,11.12,13.27V38.53h-6.49Z"></path><path class="cls-4" d="M127.27,0a3.68,3.68,0,0,1,3.83,3.89,3.83,3.83,0,1,1-7.66,0A3.68,3.68,0,0,1,127.27,0ZM124,38.53h6.5V11.4H124Z"></path><path class="cls-4" d="M140,31.19a3.69,3.69,0,0,1,3.84,3.89,3.84,3.84,0,1,1-7.67,0A3.69,3.69,0,0,1,140,31.19Z"></path><path class="cls-4" d="M152.5,0a3.68,3.68,0,0,1,3.83,3.89,3.83,3.83,0,1,1-7.66,0A3.68,3.68,0,0,1,152.5,0Zm-3.25,38.53h6.5V11.4h-6.5Z"></path><path class="cls-4" d="M188.27,25.05c0,7.78-5.17,14.09-13.68,14.09S161,32.83,161,25.05,166.18,11,174.54,11,188.27,17.32,188.27,25.05Zm-20.81,0c0,4.11,2.39,8,7.13,8s7.13-3.84,7.13-7.95-2.77-8-7.13-8C169.9,17.05,167.46,21,167.46,25.05Z"></path></g></g></svg> 